<svg width="20" height="20" viewBox="0 0 20 20" fill="none" xmlns="http://www.w3.org/2000/svg">
<path d="M4.30769 12.1469L3.63111 14.716L1.15822 14.7692C0.41919 13.375 0 11.7798 0 10.0846C0 8.44538 0.391933 6.89957 1.08666 5.53845H1.08719L3.28876 5.949L4.25318 8.17489C4.05133 8.77345 3.94131 9.41599 3.94131 10.0846C3.94138 10.8102 4.07061 11.5055 4.30769 12.1469Z" fill="#FBBB00"/>
<path d="M19.8241 8C19.9397 8.61617 20 9.2525 20 9.90285C20 10.6321 19.9242 11.3434 19.7798 12.0296C19.2898 14.3645 18.0092 16.4033 16.2352 17.8462L16.2347 17.8456L13.3621 17.6973L12.9556 15.1296C14.1327 14.4311 15.0526 13.3381 15.5372 12.0296H10.1538V8H19.8241Z" fill="#518EF8"/>
<path d="M16.3071 17.7738L16.3077 17.7744C14.593 19.1668 12.4149 20 10.0438 20C6.23351 20 2.92072 17.8482 1.23077 14.6817L4.47321 12C5.31817 14.2784 7.49354 15.9003 10.0438 15.9003C11.14 15.9003 12.167 15.6009 13.0482 15.0782L16.3071 17.7738Z" fill="#28B446"/>
<path d="M16.3077 2.28275L13.108 4.91254C12.2077 4.34759 11.1435 4.02123 10.0033 4.02123C7.42879 4.02123 5.24122 5.68506 4.4489 8L1.23131 5.35549H1.23077C2.87458 2.17379 6.18604 0 10.0033 0C12.3998 0 14.5971 0.856999 16.3077 2.28275Z" fill="#F14336"/>
</svg>
