<svg width="14" height="14" viewBox="0 0 14 14" fill="none" xmlns="http://www.w3.org/2000/svg">
<g clip-path="url(#clip0_10_455)">
<path d="M11.0833 4.914V4.08333C11.0833 3.00037 10.6531 1.96175 9.88734 1.19598C9.12157 0.430207 8.08296 0 6.99999 0C5.91702 0 4.87841 0.430207 4.11264 1.19598C3.34686 1.96175 2.91666 3.00037 2.91666 4.08333V4.914C2.39712 5.14074 1.95491 5.51397 1.64411 5.98804C1.33332 6.46211 1.1674 7.01647 1.16666 7.58333V11.0833C1.16758 11.8566 1.47517 12.5979 2.02195 13.1447C2.56873 13.6915 3.31006 13.9991 4.08332 14H9.91666C10.6899 13.9991 11.4312 13.6915 11.978 13.1447C12.5248 12.5979 12.8324 11.8566 12.8333 11.0833V7.58333C12.8326 7.01647 12.6667 6.46211 12.3559 5.98804C12.0451 5.51397 11.6029 5.14074 11.0833 4.914ZM4.08332 4.08333C4.08332 3.30979 4.39061 2.56792 4.9376 2.02094C5.48458 1.47396 6.22644 1.16667 6.99999 1.16667C7.77354 1.16667 8.5154 1.47396 9.06239 2.02094C9.60937 2.56792 9.91666 3.30979 9.91666 4.08333V4.66667H4.08332V4.08333ZM11.6667 11.0833C11.6667 11.5475 11.4823 11.9926 11.1541 12.3208C10.8259 12.649 10.3808 12.8333 9.91666 12.8333H4.08332C3.61919 12.8333 3.17408 12.649 2.84589 12.3208C2.5177 11.9926 2.33332 11.5475 2.33332 11.0833V7.58333C2.33332 7.1192 2.5177 6.67408 2.84589 6.3459C3.17408 6.01771 3.61919 5.83333 4.08332 5.83333H9.91666C10.3808 5.83333 10.8259 6.01771 11.1541 6.3459C11.4823 6.67408 11.6667 7.1192 11.6667 7.58333V11.0833Z" fill="#858585"/>
<path d="M6.99999 8.16675C6.84528 8.16675 6.69691 8.22821 6.58751 8.3376C6.47811 8.447 6.41666 8.59537 6.41666 8.75008V9.91675C6.41666 10.0715 6.47811 10.2198 6.58751 10.3292C6.69691 10.4386 6.84528 10.5001 6.99999 10.5001C7.1547 10.5001 7.30307 10.4386 7.41247 10.3292C7.52187 10.2198 7.58332 10.0715 7.58332 9.91675V8.75008C7.58332 8.59537 7.52187 8.447 7.41247 8.3376C7.30307 8.22821 7.1547 8.16675 6.99999 8.16675Z" fill="#858585"/>
</g>
<defs>
<clipPath id="clip0_10_455">
<rect width="14" height="14" fill="white"/>
</clipPath>
</defs>
</svg>
