<svg width="14" height="14" viewBox="0 0 14 14" fill="none" xmlns="http://www.w3.org/2000/svg">
<g clip-path="url(#clip0_10_453)">
<path d="M7.58333 0.583288C7.58333 0.428579 7.64479 0.280206 7.75419 0.170809C7.86359 0.0614132 8.01196 -4.49981e-05 8.16667 -4.49981e-05C9.71324 0.00165343 11.196 0.61678 12.2896 1.71037C13.3832 2.80397 13.9983 4.28671 14 5.83329C14 5.988 13.9385 6.13637 13.8291 6.24577C13.7198 6.35516 13.5714 6.41662 13.4167 6.41662C13.262 6.41662 13.1136 6.35516 13.0042 6.24577C12.8948 6.13637 12.8333 5.988 12.8333 5.83329C12.8319 4.59604 12.3398 3.40986 11.465 2.53499C10.5901 1.66012 9.40392 1.16801 8.16667 1.16662C8.01196 1.16662 7.86359 1.10516 7.75419 0.995767C7.64479 0.886371 7.58333 0.737998 7.58333 0.583288ZM8.16667 3.49995C8.78551 3.49995 9.379 3.74579 9.81658 4.18337C10.2542 4.62096 10.5 5.21445 10.5 5.83329C10.5 5.988 10.5615 6.13637 10.6709 6.24577C10.7803 6.35516 10.9286 6.41662 11.0833 6.41662C11.238 6.41662 11.3864 6.35516 11.4958 6.24577C11.6052 6.13637 11.6667 5.988 11.6667 5.83329C11.6657 4.90531 11.2967 4.01561 10.6405 3.35944C9.98434 2.70326 9.09464 2.33421 8.16667 2.33329C8.01196 2.33329 7.86359 2.39475 7.75419 2.50414C7.64479 2.61354 7.58333 2.76191 7.58333 2.91662C7.58333 3.07133 7.64479 3.2197 7.75419 3.3291C7.86359 3.4385 8.01196 3.49995 8.16667 3.49995ZM13.4709 9.76437C13.809 10.1034 13.9988 10.5626 13.9988 11.0413C13.9988 11.52 13.809 11.9792 13.4709 12.3182L12.9401 12.9301C8.16259 17.504 -3.46325 5.88112 1.04009 1.08845L1.71092 0.505122C2.05028 0.176517 2.50538 -0.00526637 2.97775 -0.000899674C3.45011 0.00346702 3.90177 0.193632 4.235 0.528455C4.25309 0.546538 5.334 1.95062 5.334 1.95062C5.65474 2.28757 5.83328 2.73516 5.83252 3.20036C5.83176 3.66555 5.65175 4.11256 5.32992 4.44845L4.65442 5.29779C5.02825 6.2061 5.57787 7.0316 6.27172 7.72684C6.96556 8.42209 7.78994 8.97338 8.6975 9.34904L9.55208 8.66946C9.88803 8.34787 10.335 8.16808 10.8 8.16743C11.2651 8.16677 11.7125 8.34531 12.0493 8.66595C12.0493 8.66595 13.4528 9.74629 13.4709 9.76437ZM12.6683 10.6125C12.6683 10.6125 11.2723 9.53862 11.2543 9.52054C11.1341 9.40138 10.9717 9.33453 10.8025 9.33453C10.6332 9.33453 10.4708 9.40138 10.3507 9.52054C10.3349 9.53687 9.15833 10.4743 9.15833 10.4743C9.07905 10.5374 8.98468 10.5788 8.88455 10.5943C8.78441 10.6099 8.68194 10.5991 8.58725 10.563C7.41152 10.1252 6.3436 9.43989 5.45582 8.55342C4.56805 7.66695 3.88115 6.60004 3.44167 5.42496C3.4027 5.32897 3.39 5.22434 3.40486 5.12182C3.41973 5.0193 3.46163 4.92259 3.52625 4.84162C3.52625 4.84162 4.46367 3.66445 4.47942 3.64929C4.59857 3.52911 4.66543 3.36673 4.66543 3.1975C4.66543 3.02826 4.59857 2.86588 4.47942 2.7457C4.46134 2.7282 3.38742 1.33112 3.38742 1.33112C3.26544 1.22175 3.10625 1.16318 2.94248 1.16741C2.77871 1.17164 2.62275 1.23835 2.50659 1.35387L1.83575 1.9372C-1.45541 5.89454 8.61933 15.4105 12.0873 12.1333L12.6187 11.5208C12.7432 11.4054 12.818 11.2462 12.8272 11.0767C12.8365 10.9072 12.7795 10.7408 12.6683 10.6125Z" fill="#858585"/>
</g>
<defs>
<clipPath id="clip0_10_453">
<rect width="14" height="14" fill="white"/>
</clipPath>
</defs>
</svg>
